<svg
   xmlns="http://www.w3.org/2000/svg"
   xmlns:inkscape="http://www.inkscape.org/namespaces/inkscape"
   viewBox="0 0 3000 1227.7708"
   width="143"
   height="34">
  <g
     style="fill:#d9d9d9;fill-rule:evenodd;stroke:none;stroke-width:1"
     transform="matrix(13.466788,0,0,13.466788,20,20)">
    <g
       style="fill:#d9d9d9">
      <g
         style="fill:#d9d9d9">
        <path
           d="m 6.7,86.8 -6.7,0 0,1.3 37.1,0 0,-23.4 -1.1,0 c 0,0 0,13.5 -4.5,17.9 -3.8,3.8 -7.8,4.1 -14.3,4.1 l 0,-43.1 c 0,0 4.5,-0.3 6.7,1.9 3.4,3.4 3.8,7.8 3.8,13.9 l 1.2,0 0,-33 -1.2,0 c 0,6.1 -0.3,10.5 -3.8,13.9 -2.2,2.2 -6.7,1.9 -6.7,1.9 l 0,-40.9 c 6.5,0 9.6,0.4 13.4,4.1 4.4,4.4 4.5,17.9 4.5,17.9 l 1.1,0 L 36.2,0 0,0 l 0,1.3 6.7,0 0,85.5 0,0 z"
           style="fill:#d9d9d9"/>
        <path
           d="m 79.2,1.3 0,85.5 c 6.5,0 10.5,-0.4 14.3,-4.1 C 97.9,78.3 98,64.8 98,64.8 l 1.1,0 0,23.4 -37.1,0 0,-1.3 6.7,0 0,-85.7 -6.7,0 0,-1.2 23.3,0 0,1.3 -6.1,0 0,0 z"
           style="fill:#d9d9d9"/>
        <path
           d="m 138.8,1.3 0,85.5 c 6.5,0 10.5,-0.4 14.3,-4.1 4.4,-4.4 4.5,-17.9 4.5,-17.9 l 1.1,0 0,23.4 -37.1,0 0,-1.3 6.7,0 0,-85.7 -6.7,0 0,-1.2 23.3,0 0,1.3 -6.1,0 0,0 z"
           style="fill:#d9d9d9"/>
        <path
           d="m 189.4,86.8 -6.7,0 0,1.3 37.1,0 0,-23.4 -1.1,0 c 0,0 0,13.5 -4.5,17.9 -3.8,3.8 -7.8,4.1 -14.3,4.1 l 0,-43.1 c 0,0 4.5,-0.3 6.7,1.9 3.4,3.4 3.8,7.8 3.8,13.9 l 1.2,0 0,-33 -1.2,0 c 0,6.1 -0.3,10.5 -3.8,13.9 -2.2,2.2 -6.7,1.9 -6.7,1.9 l 0,-40.9 c 6.5,0 9.6,0.4 13.4,4.1 4.4,4.4 4.5,17.9 4.5,17.9 l 1.1,0 0,-23.3 -36.2,0 0,1.3 6.7,0 0,85.5 0,0 0,0 z"
           style="fill:#d9d9d9"/>
      </g>
    </g>
  </g>
</svg>
