<svg xmlns="http://www.w3.org/2000/svg" x="0px" y="0px"
	width="143" height="34" viewBox="0 0 116 19.705">
<g>
	<path fill="#d9d9d9" d="M42.596,0c0.227,0,0.455,0,0.683,0c0.379,0.135,0.702,0.164,0.956,0.319
		c1.613,0.981,1.383,3.699-0.364,4.414c-2.164,0.886-4.183-1.127-3.322-3.231C40.809,0.862,41.511,0.182,42.596,0z M90.743,3.322
		c0.185,0.567,0.635,1.109,1.229,1.365c1.156,0.499,2.72,0.122,3.322-1.047C96.125,2.027,95.117,0.236,93.61,0
		c-0.288,0-0.576,0-0.865,0C91.306,0.215,90.222,1.726,90.743,3.322z M74.042,2.821c-0.371,0.198-0.919,0.371-1.001,0.592
		c-0.138,0.369,0,1.375,0,1.957c0,4.654,0,9.677,0,14.017c1.411,0,2.821,0,4.232,0c-0.03-6.083,0.061-12.287-0.045-18.294
		C76.261,1.589,75.145,2.233,74.042,2.821z M32.993,7.054c-0.344,0.191-0.74,0.291-1.001,0.592c0,3.929,0,7.858,0,11.787
		c1.411,0,2.821,0,4.232,0c0-1.446,0-3.202,0-4.96c0-1.693-0.182-3.588,0.319-4.642c0.493-1.039,1.636-1.323,3.186-1.138
		c0.236-1.084,0.527-2.112,0.728-3.231c-2.225-0.66-3.551,0.863-4.232,2.321c-0.03-0.819,0.061-1.76-0.046-2.503
		C35.128,5.847,33.994,6.499,32.993,7.054z M100.8,5.324c-0.003-0.028-0.007-0.054-0.045-0.046
		c-1.343,0.796-2.754,1.524-4.141,2.275c0,3.959,0,7.918,0,11.878c1.411,0,2.822,0,4.232,0c0-1.414,0-3.273,0-5.142
		c0-1.812-0.178-3.741,0.455-4.733c0.532-0.835,1.631-1.015,3.049-0.865c0.226-1.093,0.51-2.13,0.728-3.231
		c-2.225-0.659-3.561,0.852-4.232,2.321C100.816,6.978,100.906,6.053,100.8,5.324z M41.776,7.099
		c-0.345,0.185-0.764,0.264-1.001,0.592c0,3.914,0,7.827,0,11.741c1.426-0.03,2.973,0.06,4.323-0.046
		c-0.013-4.704,0.048-9.483-0.091-14.062C43.935,5.882,42.795,6.552,41.776,7.099z M91.016,7.6c0,3.929,0,7.858,0,11.787
		c1.441,0,2.882,0,4.323,0c0-4.687,0-9.375,0-14.062c-0.03,0-0.061,0-0.091,0C93.838,6.083,92.415,6.829,91.016,7.6z M72.085,19.113
		c0-0.713,0-1.426,0-2.139c-0.607,0.152-1.6,0.46-2.367,0.273c-0.605-0.147-1.461-0.816-1.82-1.32
		c-1.16-1.623-1.113-6.003,0.228-7.554c0.31-0.358,0.833-0.714,1.411-0.774c1.018-0.106,1.523,0.347,2.321,0.637
		c0-0.758,0-1.517,0-2.275c-0.96-0.481-1.926-0.706-3.413-0.592c-3.629,0.28-5.514,3.6-5.552,7.19
		c-0.04,3.725,1.865,6.853,5.643,7.145c0.288,0,0.576,0,0.865,0C70.388,19.601,71.216,19.337,72.085,19.113z M4.096,19.432
		c0.082-1.937,0.045-4.76,0.045-7.054c0-1.577-0.168-2.938,1.183-3.095c0.626-0.073,1.238,0.38,1.411,0.819
		c0.214,0.544,0.091,1.427,0.091,2.275c0,2.286,0,4.889,0,7.054c1.441,0,2.882,0,4.323,0c0-1.973,0-4.685,0-6.963
		c0-0.862-0.071-1.875,0.091-2.321c0.39-1.073,2.185-1.129,2.549,0c0.184,0.57,0.045,1.49,0.045,2.321c0,2.246,0,4.833,0,6.963
		c1.441,0,2.882,0,4.323,0c0.081-2.511,0.046-6.426,0.046-9.42c0-1.087,0.055-2.157-0.273-2.867
		c-0.266-0.576-0.738-1.029-1.32-1.274c-1.555-0.655-3.415-0.073-4.414,0.91c-0.325,0.32-0.553,0.759-0.865,1.092
		C10.908,6.497,9.902,5.538,8.1,5.552C7.167,5.559,6.356,5.914,5.689,6.417c-0.663,0.5-1.115,1.147-1.547,1.593
		c0-0.834,0-1.669,0-2.503c-0.694,0.18-1.348,0.643-2.048,1.001C1.404,6.861,0.686,7.177,0,7.509c0,3.974,0,7.949,0,11.923
		C1.365,19.432,2.73,19.432,4.096,19.432z M26.85,18.158c0.398,0.318,0.674,0.745,1.183,1.001c0.81,0.408,1.871,0.304,3.049,0.273
		c0-0.546,0-1.092,0-1.638c-0.062-0.168-0.299-0.135-0.41-0.182c-0.452-0.192-0.476-0.656-0.592-1.365
		c-0.193-1.18-0.412-2.402-0.592-3.504c-0.245-1.503-0.531-3.288-1.047-4.46c-0.761-1.731-2.472-2.815-4.96-2.822
		c-1.223-0.003-2.168,0.232-3.095,0.683c0,0.576,0,1.153,0,1.729c0.326-0.07,0.759-0.275,1.183-0.319
		c2.192-0.224,3.14,1.265,3.231,3.277c-1.456,0.225-2.761,0.489-3.823,1.183c-1.598,1.045-2.695,3.836-1.229,5.916
		c0.733,1.04,1.898,1.68,3.504,1.775c0.152,0,0.303,0,0.455,0C25.137,19.569,26.186,19.056,26.85,18.158z M25.075,12.924
		c0.03,0,0.061,0,0.091,0c0.166,0.933,0.343,1.8,0.546,2.821c0.06,0.3,0.235,0.686,0.182,0.91c-0.062,0.261-0.651,0.619-0.956,0.683
		c-1.211,0.253-2.185-0.77-2.048-2.048c0.138-1.284,1.177-1.73,2.139-2.366C25.045,12.924,25.06,12.924,25.075,12.924z
		 M88.968,15.564c-0.133-0.813-0.261-1.485-0.364-2.093c-0.49-2.903-0.777-5.716-2.731-7.054c-1.483-1.015-4.702-1.342-6.508-0.318
		c0,0.592,0,1.183,0,1.775c0.583-0.163,1.008-0.375,1.684-0.364c1.768,0.027,2.674,1.407,2.73,3.277
		c-1.81,0.323-3.483,0.725-4.551,1.82c-0.606,0.622-1.105,1.555-1.183,2.639c-0.179,2.495,1.598,4.248,3.914,4.414
		c1.477,0.106,2.73-0.36,3.504-1.092c0.03-0.028,0.284-0.415,0.41-0.41c0.05,0.002,0.815,0.787,0.865,0.819
		c0.761,0.489,2.01,0.505,3.322,0.455c0-0.576,0-1.153,0-1.729C89.049,17.792,89.103,16.39,88.968,15.564z M84.099,12.879
		c0.321,1.196,0.505,2.529,0.819,3.732c-0.429,0.436-0.731,0.839-1.593,0.728c-0.876-0.113-1.568-0.969-1.456-2.048
		C81.996,14.06,83.195,13.37,84.099,12.879z M56.384,18.84c0-0.652,0-1.305,0-1.957c-0.976,0.529-3.021,1.136-4.232,0.364
		c-0.87-0.555-1.267-1.745-1.638-2.867c2.39-0.825,4.841-1.59,7.281-2.366c-0.238-3.418-1.943-6.262-5.324-6.508
		c-4.359-0.317-6.479,3.244-6.553,6.917c-0.056,2.789,1.195,5.398,3.322,6.553c0.726,0.394,1.663,0.593,2.594,0.728
		c0.485,0,0.971,0,1.456,0C54.475,19.57,55.499,19.275,56.384,18.84z M54.064,11.286c-1.253,0.31-2.392,0.733-3.641,1.047
		c-0.062-1.489-0.03-3.398,0.865-4.096c0.489-0.381,1.183-0.345,1.638,0C53.682,8.809,53.904,10.164,54.064,11.286z M114.453,7.418
		c-0.829-1.007-2.156-1.79-3.732-1.911c-4.834-0.372-7.414,4.482-6.371,9.011c0.642,2.786,2.533,4.861,5.689,5.188
		c0.485,0,0.971,0,1.456,0c1.214-0.121,2.228-0.442,3.14-0.865c0-0.652,0-1.305,0-1.957c-0.884,0.45-2.496,0.995-3.777,0.592
		c-1.213-0.382-1.742-1.88-2.093-3.14c2.429-0.757,4.815-1.556,7.236-2.321c0-0.167,0-0.334,0-0.501
		C115.73,9.938,115.329,8.482,114.453,7.418z M112.268,11.286c-1.231,0.317-2.368,0.727-3.595,1.047
		c-0.16-1.622,0.051-3.826,1.138-4.278c0.348-0.144,0.733-0.13,1.047,0C111.827,8.457,112.139,10.024,112.268,11.286z"/>
</g>
</svg>
